<?xml version="1.0" encoding="UTF-8" standalone="no"?>
<!-- Created with Inkscape (http://www.inkscape.org/) -->

<svg
   xmlns:dc="http://purl.org/dc/elements/1.1/"
   xmlns:cc="http://creativecommons.org/ns#"
   xmlns:rdf="http://www.w3.org/1999/02/22-rdf-syntax-ns#"
   xmlns:svg="http://www.w3.org/2000/svg"
   xmlns="http://www.w3.org/2000/svg"
   xmlns:sodipodi="http://sodipodi.sourceforge.net/DTD/sodipodi-0.dtd"
   xmlns:inkscape="http://www.inkscape.org/namespaces/inkscape"
   width="744.09448819"
   height="1052.3622047"
   id="svg2"
   version="1.1"
   inkscape:version="0.48.4 r9939"
   sodipodi:docname="New document 1.2013_06_20_14_06_14.0.svg">
  <defs
     id="defs4" />
  <sodipodi:namedview
     id="base"
     pagecolor="#ffffff"
     bordercolor="#666666"
     borderopacity="1.0"
     inkscape:pageopacity="0.0"
     inkscape:pageshadow="2"
     inkscape:zoom="0.98994949"
     inkscape:cx="365.7046"
     inkscape:cy="798.11666"
     inkscape:document-units="px"
     inkscape:current-layer="layer1"
     showgrid="false"
     inkscape:window-width="1313"
     inkscape:window-height="744"
     inkscape:window-x="53"
     inkscape:window-y="24"
     inkscape:window-maximized="1" />
  <metadata
     id="metadata7">
    <rdf:RDF>
      <cc:Work
         rdf:about="">
        <dc:format>image/svg+xml</dc:format>
        <dc:type
           rdf:resource="http://purl.org/dc/dcmitype/StillImage" />
      </cc:Work>
    </rdf:RDF>
  </metadata>
  <g
     inkscape:label="Layer 1"
     inkscape:groupmode="layer"
     id="layer1">
    <rect
       style="fill:#f2f2f2;fill-opacity:1;fill-rule:nonzero;stroke:none"
       id="rect3070"
       width="744.14099"
       height="70.08918"
       x="0"
       y="2.813688" />
    <g
       id="g3449"
       transform="matrix(0,-1,-1,0,436.44652,538.72868)"
       style="stroke:#4d4d4d">
      <polyline
         transform="translate(172.77843,104.18789)"
         style="fill:none;stroke:#4d4d4d;stroke-miterlimit:10"
         id="polyline469"
         points="311.629,215.134 314.995,221.493 318.685,215.134 "
         stroke-miterlimit="10" />
      <path
         style="fill:none;stroke:#4d4d4d;stroke-miterlimit:10"
         inkscape:connector-curvature="0"
         id="path471"
         d="M 489.53243,320.37489"
         stroke-miterlimit="10" />
      <polyline
         transform="translate(172.77843,104.18789)"
         style="fill:none;stroke:#4d4d4d;stroke-miterlimit:10"
         id="polyline473"
         points="312.362,216.29 313.651,215.001 314.703,216.054 "
         stroke-miterlimit="10" />
      <polyline
         transform="translate(172.77843,104.18789)"
         style="fill:none;stroke:#4d4d4d;stroke-miterlimit:10"
         id="polyline475"
         points="315.471,216.036 316.504,215.003 317.748,216.247 "
         stroke-miterlimit="10" />
      <rect
         style="fill:#231f20;stroke:#4d4d4d"
         id="rect477"
         height="1.0180359"
         width="1.0460368"
         transform="matrix(0.69627545,0.71777469,-0.71777469,0.69627545,0,0)"
         y="-127.42738"
         x="569.26117" />
      <rect
         style="fill:#231f20;stroke:#4d4d4d"
         id="rect479"
         height="1.0180359"
         width="1.0460368"
         transform="matrix(0.69627545,0.71777469,-0.71777469,0.69627545,0,0)"
         y="-127.42738"
         x="569.26117" />
      <rect
         style="fill:#231f20;stroke:#4d4d4d"
         id="rect481"
         height="1.0169963"
         width="1.0019963"
         transform="matrix(0.67370246,0.7390027,-0.7390027,0.67370246,0,0)"
         y="-145.67018"
         x="565.07794" />
      <path
         style="fill:none;stroke:#4d4d4d;stroke-miterlimit:10"
         inkscape:connector-curvature="0"
         id="path483"
         d="m 491.38843,294.41889 v 2.75 h -6.947 v -2.75 c 0,-2.17 1.557,-3.92 3.469,-3.92 0.961,0 1.833,0.439 2.457,1.149 0.636,0.711 1.021,1.691 1.021,2.771 z"
         stroke-miterlimit="10" />
      <line
         style="fill:none;stroke:#4d4d4d;stroke-miterlimit:10"
         id="line485"
         y2="299.16589"
         x2="490.94846"
         y1="299.16589"
         x1="484.53143"
         stroke-miterlimit="10" />
      <line
         style="fill:none;stroke:#4d4d4d;stroke-miterlimit:10"
         id="line487"
         y2="301.08289"
         x2="491.03143"
         y1="301.08289"
         x1="484.61444"
         stroke-miterlimit="10" />
      <line
         style="fill:none;stroke:#4d4d4d;stroke-miterlimit:10"
         id="line489"
         y2="322.7749"
         x2="489.29745"
         y1="322.7749"
         x1="486.31244"
         stroke-miterlimit="10" />
      <line
         style="fill:none;stroke:#4d4d4d;stroke-miterlimit:10"
         id="line491"
         y2="296.49988"
         x2="484.45444"
         y1="319.55588"
         x1="484.45444"
         stroke-miterlimit="10" />
      <line
         style="fill:none;stroke:#4d4d4d;stroke-miterlimit:10"
         id="line493"
         y2="297.58289"
         x2="491.40045"
         y1="319.60287"
         x1="491.40045"
         stroke-miterlimit="10" />
    </g>
    <g
       id="g3350"
       transform="translate(-167.76343,-218.81681)"
       style="stroke:#4d4d4d">
      <path
         style="fill:none;stroke:#4d4d4d;stroke-miterlimit:10"
         inkscape:connector-curvature="0"
         id="path715"
         d="m 213.37343,273.74389 c 1.68,-1.67 2.73,-4 2.73,-6.56 0,-5.11 -4.15,-9.25 -9.25,-9.25 h -8.84 c -2.55,0 -4.86,1.03 -6.54,2.71 -1.67,1.67 -2.71,3.979 -2.71,6.54 0,5.11 4.15,9.25 9.25,9.25 h 7.66"
         stroke-miterlimit="10" />
      <path
         style="fill:none;stroke:#4d4d4d;stroke-miterlimit:10"
         inkscape:connector-curvature="0"
         id="path717"
         d="m 205.57743,276.42889 c 0,0 4.187,0.326 3.642,3.302 -0.536,2.978 0.374,-1.604 4.355,-6.205"
         stroke-miterlimit="10" />
      <path
         style="fill:none;stroke:#4d4d4d;stroke-miterlimit:10"
         inkscape:connector-curvature="0"
         id="path719"
         d="m 197.60043,267.35389 c 0,1.059 -0.858,1.916 -1.917,1.916 l 0,0 c -1.059,0 -1.917,-0.857 -1.917,-1.916 l 0,0 c 0,-1.059 0.858,-1.917 1.917,-1.917 l 0,0 c 1.059,0 1.917,0.858 1.917,1.917 l 0,0 z"
         stroke-miterlimit="10" />
      <path
         style="fill:none;stroke:#4d4d4d;stroke-miterlimit:10"
         inkscape:connector-curvature="0"
         id="path721"
         d="m 203.85043,267.27089 c 0,1.059 -0.858,1.916 -1.917,1.916 l 0,0 c -1.059,0 -1.917,-0.857 -1.917,-1.916 l 0,0 c 0,-1.059 0.858,-1.917 1.917,-1.917 l 0,0 c 1.059,0 1.917,0.858 1.917,1.917 l 0,0 z"
         stroke-miterlimit="10" />
      <path
         style="fill:none;stroke:#4d4d4d;stroke-miterlimit:10"
         inkscape:connector-curvature="0"
         id="path723"
         d="m 210.18343,267.35389 c 0,1.059 -0.858,1.916 -1.917,1.916 l 0,0 c -1.059,0 -1.917,-0.857 -1.917,-1.916 l 0,0 c 0,-1.059 0.858,-1.917 1.917,-1.917 l 0,0 c 1.059,0 1.917,0.858 1.917,1.917 l 0,0 z"
         stroke-miterlimit="10" />
    </g>
    <g
       id="g3357"
       transform="translate(12.39296,-216.76288)"
       style="stroke:#4d4d4d">
      <g
         transform="translate(172.77843,104.18789)"
         id="g775"
         style="stroke:#4d4d4d">
        <path
           style="fill:none;stroke:#4d4d4d;stroke-miterlimit:10"
           inkscape:connector-curvature="0"
           id="path777"
           d="m 177.88,174.879 c 0,1.1 -0.9,2 -2,2 h -25.75 c -1.1,0 -2,-0.9 -2,-2 v -15.152 c 0,-1.1 0.9,-2 2,-2 h 25.75 c 1.1,0 2,0.9 2,2 v 15.152 z"
           stroke-miterlimit="10" />
      </g>
      <path
         style="fill:none;stroke:#4d4d4d;stroke-miterlimit:10"
         inkscape:connector-curvature="0"
         id="path779"
         d="m 338.14343,269.89989 c 0,1.174 -0.951,2.125 -2.125,2.125 l 0,0 c -1.174,0 -2.125,-0.951 -2.125,-2.125 l 0,0 c 0,-1.174 0.951,-2.125 2.125,-2.125 l 0,0 c 1.174,0 2.125,0.951 2.125,2.125 l 0,0 z"
         stroke-miterlimit="10" />
      <path
         style="fill:none;stroke:#4d4d4d;stroke-miterlimit:10"
         inkscape:connector-curvature="0"
         id="path781"
         d="m 321.65843,262.69189 c 0,0 5.75,6.125 12.125,6.875"
         stroke-miterlimit="10" />
      <path
         style="fill:none;stroke:#4d4d4d;stroke-miterlimit:10"
         inkscape:connector-curvature="0"
         id="path783"
         d="m 349.90843,262.81689 c 0,0 -5.75,6.125 -12.125,6.875"
         stroke-miterlimit="10" />
      <g
         transform="translate(172.77843,104.18789)"
         id="g785"
         style="stroke:#4d4d4d">
        <path
           style="fill:none;stroke:#4d4d4d;stroke-miterlimit:10"
           inkscape:connector-curvature="0"
           id="path787"
           d="m 156.486,157.729 v -3.89 c 0,-1.1 0.9,-2 2,-2 h 9.54 c 1.1,0 2,0.9 2,2 v 3.89"
           stroke-miterlimit="10" />
      </g>
      <g
         transform="translate(172.77843,104.18789)"
         id="g789"
         style="stroke:#4d4d4d">
        <path
           style="fill:none;stroke:#4d4d4d;stroke-miterlimit:10"
           inkscape:connector-curvature="0"
           id="path791"
           d="m 158.566,157.729 v -2.72 c 0,-0.55 0.45,-1 1,-1 h 7.08 c 0.55,0 1,0.45 1,1 v 2.72"
           stroke-miterlimit="10" />
      </g>
    </g>
    <g
       id="g3393"
       transform="translate(38.1007,-254.64105)"
       style="stroke:#4d4d4d">
      <polyline
         transform="translate(172.77843,104.18789)"
         style="fill:none;stroke:#4d4d4d;stroke-miterlimit:10"
         id="polyline921"
         points="229.79,198.81 245.851,198.81 245.851,213 223.63,213   223.63,201.83 "
         stroke-miterlimit="10" />
      <g
         transform="translate(172.77843,104.18789)"
         id="g923"
         style="stroke:#4d4d4d">
        <polygon
           style="fill:none;stroke:#4d4d4d;stroke-miterlimit:10"
           id="polygon925"
           points="245.841,193.62 245.851,193.63 245.851,196.99 245.841,197 228.96,197 228.944,196.992 226.188,193.628 226.19,193.62 "
           stroke-miterlimit="10" />
      </g>
      <line
         style="fill:none;stroke:#4d4d4d;stroke-miterlimit:10"
         id="line927"
         y2="306.12589"
         x2="418.22345"
         y1="306.12589"
         x1="396.40845"
         stroke-miterlimit="10" />
      <line
         style="fill:none;stroke:#4d4d4d;stroke-miterlimit:10"
         id="line929"
         y2="306.24988"
         x2="413.03644"
         y1="302.99789"
         x1="416.28943"
         stroke-miterlimit="10" />
      <line
         style="fill:none;stroke:#4d4d4d;stroke-miterlimit:10"
         id="line931"
         y2="306.24988"
         x2="413.03644"
         y1="302.99789"
         x1="416.28943"
         stroke-miterlimit="10" />
      <line
         style="fill:none;stroke:#4d4d4d;stroke-miterlimit:10"
         id="line933"
         y2="306.24988"
         x2="413.03644"
         y1="302.99789"
         x1="416.28943"
         stroke-miterlimit="10" />
      <line
         style="fill:none;stroke:#4d4d4d;stroke-miterlimit:10"
         id="line935"
         y2="306.24988"
         x2="409.56744"
         y1="302.99789"
         x1="412.82043"
         stroke-miterlimit="10" />
      <line
         style="fill:none;stroke:#4d4d4d;stroke-miterlimit:10"
         id="line937"
         y2="306.24988"
         x2="406.31442"
         y1="302.99789"
         x1="409.56744"
         stroke-miterlimit="10" />
      <line
         style="fill:none;stroke:#4d4d4d;stroke-miterlimit:10"
         id="line939"
         y2="306.24988"
         x2="402.83044"
         y1="302.99789"
         x1="406.08344"
         stroke-miterlimit="10" />
      <line
         style="fill:none;stroke:#4d4d4d;stroke-miterlimit:10"
         id="line941"
         y2="297.8739"
         x2="413.31442"
         y1="301.12589"
         x1="416.56744"
         stroke-miterlimit="10" />
      <line
         style="fill:none;stroke:#4d4d4d;stroke-miterlimit:10"
         id="line943"
         y2="297.8739"
         x2="409.84543"
         y1="301.12589"
         x1="413.09845"
         stroke-miterlimit="10" />
      <line
         style="fill:none;stroke:#4d4d4d;stroke-miterlimit:10"
         id="line945"
         y2="297.8739"
         x2="406.59244"
         y1="301.12589"
         x1="409.84543"
         stroke-miterlimit="10" />
      <line
         style="fill:none;stroke:#4d4d4d;stroke-miterlimit:10"
         id="line947"
         y2="297.8739"
         x2="403.10843"
         y1="301.12589"
         x1="406.36142"
         stroke-miterlimit="10" />
      <line
         style="fill:none;stroke:#4d4d4d;stroke-miterlimit:10"
         id="line949"
         y2="308.74988"
         x2="415.84845"
         y1="308.74988"
         x1="398.03644"
         stroke-miterlimit="10" />
      <line
         style="fill:none;stroke:#4d4d4d;stroke-miterlimit:10"
         id="line951"
         y2="311.24988"
         x2="403.59845"
         y1="311.24988"
         x1="398.03644"
         stroke-miterlimit="10" />
      <line
         style="fill:none;stroke:#4d4d4d;stroke-miterlimit:10"
         id="line953"
         y2="313.87589"
         x2="403.59845"
         y1="313.87589"
         x1="398.03644"
         stroke-miterlimit="10" />
      <line
         style="fill:none;stroke:#4d4d4d;stroke-miterlimit:10"
         id="line955"
         y2="297.81088"
         x2="396.40845"
         y1="297.81088"
         x1="399.76544"
         stroke-miterlimit="10" />
      <line
         style="fill:none;stroke:#4d4d4d;stroke-miterlimit:10"
         id="line957"
         y2="297.3129"
         x2="396.40845"
         y1="306.87589"
         x1="396.40845"
         stroke-miterlimit="10" />
      <line
         style="fill:none;stroke:#4d4d4d;stroke-miterlimit:10"
         id="line959"
         y2="302.99789"
         x2="396.40845"
         y1="302.99789"
         x1="402.83044"
         stroke-miterlimit="10" />
      <line
         style="fill:none;stroke:#4d4d4d;stroke-miterlimit:10"
         id="line961"
         y2="302.99789"
         x2="399.91843"
         y1="301.1879"
         x1="401.72842"
         stroke-miterlimit="10" />
      <line
         style="fill:none;stroke:#4d4d4d;stroke-miterlimit:10"
         id="line963"
         y2="306.24988"
         x2="399.61945"
         y1="302.99789"
         x1="402.87244"
         stroke-miterlimit="10" />
      <circle
         transform="translate(172.77843,104.18789)"
         d="m 226.414,196.34399 c 0,0.41422 -0.33578,0.75 -0.75,0.75 -0.41421,0 -0.75,-0.33578 -0.75,-0.75 0,-0.41421 0.33579,-0.75 0.75,-0.75 0.41422,0 0.75,0.33579 0.75,0.75 z"
         style="fill:#231f20;stroke:#4d4d4d"
         sodipodi:ry="0.75"
         sodipodi:rx="0.75"
         sodipodi:cy="196.34399"
         sodipodi:cx="225.664"
         id="circle985"
         r="0.75"
         cy="196.34399"
         cx="225.664" />
    </g>
    <g
       id="g3368"
       transform="translate(42.33498,-289.61671)"
       style="stroke:#4d4d4d">
      <g
         transform="translate(172.77843,104.18789)"
         id="g1005"
         style="stroke:#4d4d4d">
        <path
           style="fill:none;stroke:#4d4d4d;stroke-miterlimit:10"
           inkscape:connector-curvature="0"
           id="path1007"
           d="m 26.694,228.003 h 4.113 c 0.55,0 1.41,0 1.912,0 0.501,0 0.911,0.45 0.911,1 v 21.288 c 0,0.55 -0.45,1 -1,1 H 16.435 c -0.55,0 -1,-0.45 -1,-1 v -21.288 c 0,-0.55 0.426,-1 0.947,-1 0.521,0 1.397,0 1.947,0 h 4.042"
           stroke-miterlimit="10" />
      </g>
      <path
         style="fill:none;stroke:#4d4d4d;stroke-miterlimit:10"
         inkscape:connector-curvature="0"
         id="path1009"
         d="m 195.14943,332.19089 v -1.135 c 0,-1.184 0.972,-2.156 2.167,-2.156 0.597,0 1.134,0.244 1.519,0.638 0.395,0.386 0.638,0.922 0.638,1.519 v 1.135"
         stroke-miterlimit="10" />
      <polyline
         transform="translate(172.77843,104.18789)"
         style="fill:none;stroke:#4d4d4d;stroke-miterlimit:10"
         id="polyline1011"
         points="26.694,228.003 31.807,228.003 31.807,232.731   17.328,232.731 17.328,228.003 22.371,228.003 "
         stroke-miterlimit="10" />
      <line
         style="fill:none;stroke:#4d4d4d;stroke-miterlimit:10"
         id="line1013"
         y2="332.19089"
         x2="195.64844"
         y1="332.19089"
         x1="193.52843"
         stroke-miterlimit="10" />
      <line
         style="fill:none;stroke:#4d4d4d;stroke-miterlimit:10"
         id="line1015"
         y2="332.19089"
         x2="201.10643"
         y1="332.19089"
         x1="198.98643"
         stroke-miterlimit="10" />
      <path
         style="fill:none;stroke:#4d4d4d;stroke-miterlimit:10"
         inkscape:connector-curvature="0"
         id="path1017"
         d="m 198.12543,331.35889 c 0,0.45 -0.365,0.816 -0.815,0.816 l 0,0 c -0.45,0 -0.814,-0.366 -0.814,-0.816 l 0,0 c 0,-0.451 0.365,-0.816 0.814,-0.816 l 0,0 c 0.45,-10e-4 0.815,0.365 0.815,0.816 l 0,0 z"
         stroke-miterlimit="10" />
      <line
         style="fill:none;stroke:#4d4d4d;stroke-miterlimit:10"
         id="line1019"
         y2="339.53189"
         x2="204.58543"
         y1="339.53189"
         x1="190.10643"
         stroke-miterlimit="10" />
      <line
         style="fill:none;stroke:#4d4d4d;stroke-miterlimit:10"
         id="line1021"
         y2="342.0629"
         x2="194.58842"
         y1="342.0629"
         x1="190.11143"
         stroke-miterlimit="10" />
      <line
         style="fill:none;stroke:#4d4d4d;stroke-miterlimit:10"
         id="line1023"
         y2="344.97388"
         x2="204.58543"
         y1="344.97388"
         x1="190.11143"
         stroke-miterlimit="10" />
      <line
         style="fill:none;stroke:#4d4d4d;stroke-miterlimit:10"
         id="line1025"
         y2="347.3779"
         x2="204.58543"
         y1="347.3779"
         x1="190.11143"
         stroke-miterlimit="10" />
      <line
         style="fill:none;stroke:#4d4d4d;stroke-miterlimit:10"
         id="line1027"
         y2="352.49588"
         x2="204.58243"
         y1="352.49588"
         x1="190.10643"
         stroke-miterlimit="10" />
    </g>
    <g
       id="g4194"
       transform="translate(389.70726,-187.37483)"
       style="stroke:#4d4d4d">
      <path
         id="path1095"
         d="m 233.932,230.678 c -1.032,-1.479 -2.645,-2.273 -4.293,-2.358 -1.649,-0.083 -3.334,0.544 -4.51,1.912 -1.174,1.365 -1.561,3.093 -1.29,4.728 0.271,1.635 1.197,3.178 2.651,4.168"
         stroke-miterlimit="10"
         inkscape:connector-curvature="0"
         style="fill:none;stroke:#4d4d4d;stroke-miterlimit:10" />
      <path
         id="path1097"
         d="m 249.23,237.211 c 0.822,-1.26 1.045,-2.783 0.756,-4.206 -0.289,-1.425 -1.089,-2.748 -2.31,-3.609 -1.258,-0.886 -2.797,-1.169 -4.246,-0.92 -1.447,0.252 -2.803,1.036 -3.693,2.287"
         stroke-miterlimit="10"
         inkscape:connector-curvature="0"
         style="fill:none;stroke:#4d4d4d;stroke-miterlimit:10" />
      <path
         id="path1099"
         d="m 247.679,239.057 -0.079,-0.048 -0.08,-0.049"
         stroke-miterlimit="10"
         inkscape:connector-curvature="0"
         style="fill:none;stroke:#4d4d4d;stroke-miterlimit:10" />
      <path
         id="path1101"
         d="m 233.833,230.539 c 0.494,0.559 0.989,1.119 1.484,1.68 0.494,0.559 0.989,1.119 1.483,1.679 0.505,-0.56 1.012,-1.12 1.517,-1.679 0.506,-0.561 1.285,-1.358 1.789,-1.918"
         stroke-miterlimit="10"
         inkscape:connector-curvature="0"
         style="fill:none;stroke:#4d4d4d;stroke-miterlimit:10" />
      <path
         id="path1103"
         d="m 226.217,238.96 c 1.776,1.823 3.554,3.647 5.329,5.472 1.777,1.823 3.554,3.648 5.331,5.471 1.781,-1.822 3.558,-3.654 5.337,-5.48 1.779,-1.827 3.562,-3.65 5.359,-5.462"
         stroke-miterlimit="10"
         inkscape:connector-curvature="0"
         style="fill:none;stroke:#4d4d4d;stroke-miterlimit:10" />
      <polyline
         id="polyline1105"
         points="249.318,237.198 249.312,237.205 249.307,237.211 "
         stroke-miterlimit="10"
         style="fill:none;stroke:#4d4d4d;stroke-miterlimit:10" />
      <polyline
         id="polyline1107"
         points="224.374,237.118 224.368,237.112 224.361,237.106 "
         stroke-miterlimit="10"
         style="fill:none;stroke:#4d4d4d;stroke-miterlimit:10" />
      <path
         id="path1109"
         d="m 246.816,239.724 c 0,0 0.59,-0.562 1.22,-1.211 0.628,-0.649 1.293,-1.385 1.443,-1.733"
         stroke-miterlimit="10"
         inkscape:connector-curvature="0"
         style="fill:none;stroke:#4d4d4d;stroke-miterlimit:10" />
    </g>
    <g
       transform="translate(511.4005,-225.24489)"
       id="g4538"
       style="stroke:#4d4d4d">
      <line
         style="fill:none;stroke:#4d4d4d;stroke-miterlimit:10"
         id="line283"
         y2="291.86301"
         x2="8.4169998"
         y1="267.22299"
         x1="15.428"
         stroke-miterlimit="10" />
      <line
         style="fill:none;stroke:#4d4d4d;stroke-miterlimit:10"
         id="line285"
         y2="264.32599"
         x2="23.155001"
         y1="287.29901"
         x1="16.795"
         stroke-miterlimit="10" />
      <line
         style="fill:none;stroke:#4d4d4d;stroke-miterlimit:10"
         id="line287"
         y2="267.73599"
         x2="30.15"
         y1="292.22501"
         x1="23.284"
         stroke-miterlimit="10" />
      <line
         style="fill:none;stroke:#4d4d4d;stroke-miterlimit:10"
         id="line289"
         y2="291.83801"
         x2="37.789001"
         y1="267.802"
         x1="44.839001"
         stroke-miterlimit="10" />
      <line
         style="fill:none;stroke:#4d4d4d;stroke-miterlimit:10"
         id="line291"
         y2="264.05399"
         x2="37.799"
         y1="286.64499"
         x1="31.601999"
         stroke-miterlimit="10" />
      <line
         style="fill:none;stroke:#4d4d4d;stroke-miterlimit:10"
         id="line293"
         y2="292.082"
         x2="8.2360001"
         y1="286.905"
         x1="16.957001"
         stroke-miterlimit="10" />
      <line
         style="fill:none;stroke:#4d4d4d;stroke-miterlimit:10"
         id="line295"
         y2="292.43201"
         x2="23.464001"
         y1="287.10901"
         x1="16.929001"
         stroke-miterlimit="10" />
      <line
         style="fill:none;stroke:#4d4d4d;stroke-miterlimit:10"
         id="line297"
         y2="264.40302"
         x2="23.077"
         y1="267.504"
         x1="15.186"
         stroke-miterlimit="10" />
      <line
         style="fill:none;stroke:#4d4d4d;stroke-miterlimit:10"
         id="line299"
         y2="267.73599"
         x2="30.15"
         y1="264.40302"
         x1="22.767"
         stroke-miterlimit="10" />
      <line
         style="fill:none;stroke:#4d4d4d;stroke-miterlimit:10"
         id="line301"
         y2="263.91199"
         x2="38.034"
         y1="267.73599"
         x1="30.15"
         stroke-miterlimit="10" />
      <line
         style="fill:none;stroke:#4d4d4d;stroke-miterlimit:10"
         id="line303"
         y2="286.36099"
         x2="31.834"
         y1="292.48199"
         x1="23"
         stroke-miterlimit="10" />
      <line
         style="fill:none;stroke:#4d4d4d;stroke-miterlimit:10"
         id="line305"
         y2="286.74799"
         x2="31.729"
         y1="291.39801"
         x1="37.672001"
         stroke-miterlimit="10" />
      <line
         style="fill:none;stroke:#4d4d4d;stroke-miterlimit:10"
         id="line307"
         y2="263.875"
         x2="37.705002"
         y1="268.24799"
         x1="44.963001"
         stroke-miterlimit="10" />
      <line
         style="fill:none;stroke:#4d4d4d;stroke-miterlimit:10"
         id="line309"
         y2="277.73001"
         x2="14.023"
         y1="268.24899"
         x1="16.593"
         stroke-miterlimit="10" />
      <line
         style="fill:none;stroke:#4d4d4d;stroke-miterlimit:10"
         id="line311"
         y2="281.69699"
         x2="23.006001"
         y1="272.246"
         x1="25.690001"
         stroke-miterlimit="10" />
      <line
         style="fill:none;stroke:#4d4d4d;stroke-miterlimit:10"
         id="line313"
         y2="284.86801"
         x2="23.642"
         y1="269.93399"
         x1="27.73"
         stroke-miterlimit="10" />
      <path
         style="fill:none;stroke:#4d4d4d;stroke-miterlimit:10"
         inkscape:connector-curvature="0"
         id="path315"
         d="m 41.318,273.479 c 0.144,-0.289 0.223,-0.613 0.223,-0.953 0,-1.195 -0.969,-2.167 -2.164,-2.167 -1.197,0 -2.166,0.972 -2.166,2.167 0,0.34 0.079,0.664 0.22,0.953"
         stroke-miterlimit="10" />
      <polyline
         style="fill:none;stroke:#4d4d4d;stroke-miterlimit:10"
         id="polyline317"
         points="37.42,273.455 39.33,277.124 41.323,273.467 "
         stroke-miterlimit="10" />
      <circle
         d="m 40.562002,272.42001 c 0,0.64562 -0.52338,1.169 -1.169,1.169 -0.645621,0 -1.169,-0.52338 -1.169,-1.169 0,-0.64562 0.523379,-1.169 1.169,-1.169 0.64562,0 1.169,0.52338 1.169,1.169 z"
         style="fill:none;stroke:#4d4d4d;stroke-width:0.5;stroke-miterlimit:10"
         sodipodi:ry="1.169"
         sodipodi:rx="1.169"
         sodipodi:cy="272.42001"
         sodipodi:cx="39.393002"
         id="circle319"
         r="1.169"
         cy="272.42001"
         cx="39.393002"
         stroke-miterlimit="10" />
      <path
         style="fill:none;stroke:#4d4d4d;stroke-miterlimit:10"
         inkscape:connector-curvature="0"
         id="path321"
         d="m 16.964,281.895 c 0.144,-0.288 0.223,-0.612 0.223,-0.953 0,-1.195 -0.969,-2.166 -2.164,-2.166 -1.197,0 -2.166,0.971 -2.166,2.166 0,0.341 0.079,0.665 0.22,0.953"
         stroke-miterlimit="10" />
      <polyline
         style="fill:none;stroke:#4d4d4d;stroke-miterlimit:10"
         id="polyline323"
         points="13.066,281.871 14.976,285.541 16.969,281.883 "
         stroke-miterlimit="10" />
      <circle
         d="m 16.208,280.83701 c 0,0.64562 -0.52338,1.169 -1.169,1.169 -0.645621,0 -1.169,-0.52338 -1.169,-1.169 0,-0.64563 0.523379,-1.169 1.169,-1.169 0.64562,0 1.169,0.52337 1.169,1.169 z"
         style="fill:none;stroke:#4d4d4d;stroke-width:0.5;stroke-miterlimit:10"
         sodipodi:ry="1.169"
         sodipodi:rx="1.169"
         sodipodi:cy="280.83701"
         sodipodi:cx="15.039"
         id="circle325"
         r="1.169"
         cy="280.83701"
         cx="15.039"
         stroke-miterlimit="10" />
    </g>
    <g
       transform="matrix(0,-1,1,0,542.48189,307.9442)"
       id="g4595"
       style="stroke:#4d4d4d">
      <path
         style="fill:none;stroke:#4d4d4d;stroke-miterlimit:10"
         inkscape:connector-curvature="0"
         id="path795"
         d="m 250.543,173.706 c 0,1.335 -1.082,2.417 -2.417,2.417 l 0,0 c -1.335,0 -2.417,-1.082 -2.417,-2.417 l 0,0 c 0,-1.335 1.082,-2.417 2.417,-2.417 l 0,0 c 1.335,0 2.417,1.082 2.417,2.417 l 0,0 z"
         stroke-miterlimit="10" />
      <path
         style="fill:none;stroke:#4d4d4d;stroke-miterlimit:10"
         inkscape:connector-curvature="0"
         id="path797"
         d="m 259.709,173.705 c 0,1.335 -1.082,2.417 -2.417,2.417 l 0,0 c -1.335,0 -2.417,-1.082 -2.417,-2.417 l 0,0 c 0,-1.335 1.082,-2.417 2.417,-2.417 l 0,0 c 1.335,0 2.417,1.082 2.417,2.417 l 0,0 z"
         stroke-miterlimit="10" />
      <path
         style="fill:none;stroke:#4d4d4d;stroke-miterlimit:10"
         inkscape:connector-curvature="0"
         id="path799"
         d="m 268.907,173.664 c 0,1.335 -1.082,2.417 -2.417,2.417 l 0,0 c -1.335,0 -2.417,-1.082 -2.417,-2.417 l 0,0 c 0,-1.335 1.082,-2.417 2.417,-2.417 l 0,0 c 1.335,0 2.417,1.082 2.417,2.417 l 0,0 z"
         stroke-miterlimit="10" />
      <path
         style="fill:none;stroke:#4d4d4d;stroke-miterlimit:10"
         inkscape:connector-curvature="0"
         id="path815"
         d="m 259.667,153.873 c 0,1.335 -1.082,2.417 -2.417,2.417 l 0,0 c -1.335,0 -2.417,-1.082 -2.417,-2.417 l 0,0 c 0,-1.335 1.082,-2.417 2.417,-2.417 l 0,0 c 1.335,0 2.417,1.082 2.417,2.417 l 0,0 z"
         stroke-miterlimit="10" />
      <line
         style="fill:none;stroke:#4d4d4d;stroke-miterlimit:10"
         id="line817"
         y2="156.039"
         x2="257.349"
         y1="171.008"
         x1="257.349"
         stroke-miterlimit="10" />
      <line
         style="fill:none;stroke:#4d4d4d;stroke-miterlimit:10"
         id="line819"
         y2="163.008"
         x2="257.45901"
         y1="171.44501"
         x1="249.021"
         stroke-miterlimit="10" />
      <line
         style="fill:none;stroke:#4d4d4d;stroke-miterlimit:10"
         id="line821"
         y2="171.47701"
         x2="265.646"
         y1="163.07001"
         x1="257.23999"
         stroke-miterlimit="10" />
    </g>
    <rect
       y="23.154921"
       x="2.2942352e-09"
       height="7.1824684"
       width="745"
       id="rect3830"
       style="fill:#16a085;fill-opacity:1;fill-rule:evenodd;stroke:none" />
    <rect
       style="fill:#1abc9c;fill-opacity:1;fill-rule:evenodd;stroke:none"
       id="rect2985"
       width="745"
       height="30"
       x="2.2942352e-09"
       y="-1.2876936" />
    <text
       xml:space="preserve"
       style="font-size:33.3066597px;font-style:normal;font-weight:bold;line-height:125%;letter-spacing:0px;word-spacing:0px;fill:#ffffff;fill-opacity:1;stroke:none;font-family:Sans;-inkscape-font-specification:Meera Bold"
       x="69.085457"
       y="23.21327"
       id="text2987"
       sodipodi:linespacing="125%"
       transform="scale(0.93094934,1.0741723)"><tspan
         sodipodi:role="line"
         id="tspan2989"
         x="69.085457"
         y="23.21327"
         style="font-style:normal;font-variant:normal;font-weight:bold;font-stretch:normal;fill:#ffffff;font-family:Meera;-inkscape-font-specification:Meera Bold">I<tspan
   style="font-weight:normal;fill:#ffffff;-inkscape-font-specification:Meera"
   id="tspan2995">NTERESD</tspan></tspan></text>
    <text
       xml:space="preserve"
       style="font-size:11.09941959px;font-style:normal;font-weight:normal;line-height:125%;letter-spacing:0px;word-spacing:0px;fill:#ffffff;fill-opacity:1;stroke:none;font-family:Sans"
       x="715.71405"
       y="16.916813"
       id="text3767"
       sodipodi:linespacing="125%"
       transform="scale(0.93094934,1.0741723)"><tspan
         sodipodi:role="line"
         id="tspan3769"
         x="715.71405"
         y="16.916813">User N.</tspan></text>
    <g
       id="g3800"
       transform="matrix(1.1260377,0,0,1.1466274,-106.57541,-0.37076008)">
      <rect
         y="2.3621826"
         x="655.14288"
         height="20"
         width="20"
         id="rect3765"
         style="fill:#ffffff;fill-opacity:1;stroke:none" />
      <rect
         style="fill:none;stroke:#16a085;stroke-opacity:1"
         id="rect3771"
         width="20"
         height="20"
         x="655.14288"
         y="2.3621826" />
    </g>
    <g
       id="g3787"
       transform="matrix(2.272932,0,0,2.9958,-57.846069,-101.73815)">
      <path
         transform="matrix(2.6346171,0,0,0.84471181,-75.545167,6.1715467)"
         d="m 46.473213,38.701466 c 0,1.94779 -0.229854,3.526785 -0.513393,3.526785 -0.283539,0 -0.513393,-1.578995 -0.513393,-3.526785 0,-1.94779 0.229854,-3.526786 0.513393,-3.526786 0.283539,0 0.513393,1.578996 0.513393,3.526786 z"
         sodipodi:ry="3.5267856"
         sodipodi:rx="0.51339287"
         sodipodi:cy="38.701466"
         sodipodi:cx="45.95982"
         id="path3783"
         style="fill:#169185;fill-opacity:1;stroke:none"
         sodipodi:type="arc" />
      <path
         sodipodi:nodetypes="ccccc"
         inkscape:connector-curvature="0"
         id="path3773"
         d="m 37.08603,34.777971 c 3.806249,2.350918 4.268563,3.511413 8.224077,1.160495 -1.583313,2.617038 -1.588766,3.589804 0.102806,5.909075 -4.05203,-2.533347 -4.850339,-2.188605 -8.603941,0.500534 C 34.936554,40.10323 34.93438,37.4694 37.08603,34.777971 z"
         style="fill:#16a085;fill-opacity:1;stroke:#169185;stroke-width:0.13298802;stroke-linecap:round;stroke-linejoin:round;stroke-miterlimit:4;stroke-opacity:1;stroke-dasharray:none" />
      <path
         inkscape:connector-curvature="0"
         id="path3775"
         d="m 35.411663,38.566717 -6.016124,0"
         style="fill:none;stroke:#169185;stroke-width:0.2;stroke-linecap:round;stroke-linejoin:round;stroke-miterlimit:4;stroke-opacity:1;stroke-dasharray:none" />
    </g>
    <rect
       ry="0"
       y="20.208364"
       x="319.03149"
       height="1.2581608"
       width="119.08031"
       id="rect4231"
       style="fill:#169685;fill-opacity:1;stroke:none" />
    <rect
       style="fill:#f8f8f8;fill-opacity:1;stroke:none"
       id="rect3794"
       width="106.24097"
       height="15.112453"
       x="319.0166"
       y="5.5996184"
       ry="0" />
    <rect
       style="fill:#16a085;fill-opacity:1;stroke:none"
       id="rect3798"
       width="17.399113"
       height="15.361295"
       x="420.71271"
       y="5.4665251"
       ry="0" />
    <g
       id="g3106"
       transform="matrix(1.2956475,0,0,1.2956475,-261.05615,-5.9031396)">
      <rect
         transform="matrix(0.73447086,0.67864022,-0.57015807,0.82153501,0,0)"
         y="-354.41223"
         x="450.15146"
         height="0.80884016"
         width="6.720777"
         id="rect3808"
         style="fill:#167885;fill-opacity:1;stroke:#167885;stroke-width:0.25483817;stroke-linecap:round;stroke-linejoin:round;stroke-miterlimit:4;stroke-opacity:1;stroke-dasharray:none" />
      <rect
         ry="0.20922153"
         style="fill:#168285;fill-opacity:1;stroke:none"
         id="rect3816"
         width="6.582777"
         height="0.76738197"
         x="424.01495"
         y="-356.23132"
         transform="matrix(0.72759622,0.68600564,-0.63034946,0.77631151,0,0)" />
      <path
         sodipodi:type="arc"
         style="fill:#167885;fill-opacity:1;stroke:none"
         id="path3853"
         sodipodi:cx="549.82141"
         sodipodi:cy="12.138966"
         sodipodi:rx="1.9642857"
         sodipodi:ry="2.4553571"
         d="m 551.7857,12.138966 c 0,1.356056 -0.87944,2.455357 -1.96429,2.455357 -1.08484,0 -1.96428,-1.099301 -1.96428,-2.455357 0,-1.356057 0.87944,-2.4553575 1.96428,-2.4553575 1.08485,0 1.96429,1.0993005 1.96429,2.4553575 z"
         transform="matrix(1.4389559,0,0,1.1511648,-260.30434,-0.5239318)" />
      <path
         transform="matrix(1.4389559,0,0,1.1511648,-260.22562,-0.88536904)"
         d="m 551.7857,12.138966 c 0,1.356056 -0.87944,2.455357 -1.96429,2.455357 -1.08484,0 -1.96428,-1.099301 -1.96428,-2.455357 0,-1.356057 0.87944,-2.4553575 1.96428,-2.4553575 1.08485,0 1.96429,1.0993005 1.96429,2.4553575 z"
         sodipodi:ry="2.4553571"
         sodipodi:rx="1.9642857"
         sodipodi:cy="12.138966"
         sodipodi:cx="549.82141"
         id="path3804"
         style="fill:#168285;fill-opacity:1;stroke:#169185;stroke-width:0.2695787;stroke-linecap:round;stroke-linejoin:round;stroke-miterlimit:4;stroke-opacity:1;stroke-dasharray:none"
         sodipodi:type="arc" />
    </g>
    <rect
       style="fill:none;stroke:#16a085;stroke-width:0.51329821;stroke-miterlimit:4;stroke-opacity:1;stroke-dasharray:none"
       id="rect3855"
       width="127.4867"
       height="30.383455"
       x="617.34467"
       y="-0.90600324" />
    <g
       id="g3873"
       transform="matrix(0.42897571,0,0,0.42897571,352.84265,-20.251125)"
       style="fill:#e6e6e6;stroke:#ececec">
      <path
         d="m 689.66483,71.722931 c 0,8.005748 -6.80652,14.495689 -15.20279,14.495689 -8.39628,0 -15.2028,-6.489941 -15.2028,-14.495689 0,-8.005748 6.80652,-14.495689 15.2028,-14.495689 8.39627,0 15.20279,6.489941 15.20279,14.495689 z"
         sodipodi:ry="14.495689"
         sodipodi:rx="15.202796"
         sodipodi:cy="71.722931"
         sodipodi:cx="674.46204"
         id="path3869"
         style="fill:#e6e6e6;fill-opacity:1;stroke:#ececec;stroke-width:1;stroke-linecap:round;stroke-linejoin:miter;stroke-miterlimit:4;stroke-opacity:1;stroke-dasharray:none;stroke-dashoffset:10"
         sodipodi:type="arc" />
      <path
         sodipodi:end="3.1551006"
         sodipodi:start="0"
         d="m 692.49325,88.929192 c 0,6.183301 -8.12562,11.195858 -18.14907,11.195858 -10.02346,0 -18.14908,-5.012557 -18.14908,-11.195858 0,-0.05041 5.5e-4,-0.100822 0.002,-0.151229 l 18.14742,0.151229 z"
         sodipodi:ry="11.195857"
         sodipodi:rx="18.149075"
         sodipodi:cy="88.929192"
         sodipodi:cx="674.34418"
         id="path3871"
         style="fill:#e6e6e6;fill-opacity:1;stroke:#ececec;stroke-width:1;stroke-linecap:round;stroke-linejoin:miter;stroke-miterlimit:4;stroke-opacity:1;stroke-dasharray:none;stroke-dashoffset:10"
         sodipodi:type="arc" />
    </g>
    <g
       transform="matrix(-0.58496636,0,0,0.58496636,663.72684,-82.205481)"
       id="g4634"
       style="opacity:0.7;fill:none;stroke:#1a1a1a">
      <path
         style="fill:none;stroke:#1a1a1a;stroke-miterlimit:10"
         inkscape:connector-curvature="0"
         id="path749"
         d="M 120.712,171.411"
         stroke-miterlimit="10" />
      <path
         style="fill:none;stroke:#1a1a1a;stroke-miterlimit:10"
         inkscape:connector-curvature="0"
         id="path751"
         d="M 112.697,178.5"
         stroke-miterlimit="10" />
      <path
         style="fill:none;stroke:#1a1a1a;stroke-miterlimit:10"
         inkscape:connector-curvature="0"
         id="path753"
         d="M 109.697,171.441"
         stroke-miterlimit="10" />
      <path
         style="fill:none;stroke:#1a1a1a;stroke-miterlimit:10"
         inkscape:connector-curvature="0"
         id="path755"
         d="M 108.868,171.426"
         stroke-miterlimit="10" />
      <g
         id="g757"
         style="fill:none;stroke:#1a1a1a">
        <path
           style="fill:none;stroke:#1a1a1a;stroke-miterlimit:10"
           inkscape:connector-curvature="0"
           id="path759"
           d="m 115.476,177.046 c 0,0 -0.055,0.036 -0.123,0.079 -0.067,0.044 -0.867,-0.427 -1.776,-1.045 l -5.208,-3.545 c -0.909,-0.618 -2.553,-1.125 -3.653,-1.125 h -3.93 c -1.1,0 -2,-0.9 -2,-2 v -14.202 c 0,-1.1 0.9,-2 2,-2 H 115.2"
           stroke-miterlimit="10" />
      </g>
      <g
         id="g761"
         style="fill:none;stroke:#1a1a1a">
        <path
           style="fill:none;stroke:#1a1a1a;stroke-miterlimit:10"
           inkscape:connector-curvature="0"
           id="path763"
           d="m 115.562,153.208 h 14.414 c 1.1,0 2,0.9 2,2 v 14.202 c 0,1.1 -0.9,2 -2,2 h -3.93 c -1.1,0 -2.744,0.507 -3.653,1.125 l -5.208,3.545 c -0.909,0.618 -1.708,1.089 -1.776,1.045 -0.068,-0.043 -0.123,-0.079 -0.123,-0.079"
           stroke-miterlimit="10" />
      </g>
      <line
         style="fill:none;stroke:#1a1a1a;stroke-miterlimit:10"
         id="line765"
         y2="153.216"
         x2="123.571"
         y1="153.216"
         x1="105.696"
         stroke-miterlimit="10" />
      <line
         style="fill:none;stroke:#1a1a1a;stroke-miterlimit:10"
         id="line767"
         y2="158.37199"
         x2="127.904"
         y1="158.37199"
         x1="103.404"
         stroke-miterlimit="10" />
      <line
         style="fill:none;stroke:#1a1a1a;stroke-miterlimit:10"
         id="line769"
         y2="161.12601"
         x2="127.857"
         y1="161.12601"
         x1="103.357"
         stroke-miterlimit="10" />
      <line
         style="fill:none;stroke:#1a1a1a;stroke-miterlimit:10"
         id="line771"
         y2="163.688"
         x2="127.857"
         y1="163.688"
         x1="103.357"
         stroke-miterlimit="10" />
      <line
         style="fill:none;stroke:#1a1a1a;stroke-miterlimit:10"
         id="line773"
         y2="166.25101"
         x2="127.857"
         y1="166.25101"
         x1="103.357"
         stroke-miterlimit="10" />
    </g>
  </g>
</svg>
